# xmcd
#
# Track frame offsets:
#	150
#	20701
#	36527
#	63647
#	87749
#	107429
#	127605
#	133531
#	152548
#	173248
#	192824
#	211432
#	236633
#	257341
#	273849
#	280607
#
# Disc length: 3924 seconds
#
# Revision: 1
# Processed by: cddbd v1.5.2PL0 Copyright (c) Steve Scherf et al.
# Submitted via: audiograbber 1.83.01
#
DISCID=db0f5210
DTITLE=Brad Pasiley - American Saturday Night
DYEAR=2009
DGENRE=Country
TTITLE0=American Saturday Night
TTITLE1=Everybody's Here
TTITLE2=Welcome To The Future
TTITLE3=Then
TTITLE4=Water
TTITLE5=She's Her Own Woman
TTITLE6=Welcome To The Future (Reprise)
TTITLE7=Anything Like Me
TTITLE8=You Do The Math
TTITLE9=No
TTITLE10=Catch All The Fish
TTITLE11=Oh Yeah, You're Gone
TTITLE12=The Pants
TTITLE13=I Hope That's Me
TTITLE14=Back To The Future
TTITLE15=Breakfast With You
EXTD=
EXTT0=
EXTT1=
EXTT2=
EXTT3=
EXTT4=
EXTT5=
EXTT6=
EXTT7=
EXTT8=
EXTT9=
EXTT10=
EXTT11=
EXTT12=
EXTT13=
EXTT14=
EXTT15=
PLAYORDER=
